<svg width="974" height="1776" viewBox="0 0 974 1776" fill="none" xmlns="http://www.w3.org/2000/svg">
    <path
        d="M668.946 500.156H842.774L826.172 564.609H656.25C622.395 739.74 566.406 970.209 488.281 1256.02C427.083 1478.02 360.351 1624.18 288.086 1694.49C233.398 1748.53 177.083 1775.55 119.141 1775.55C82.6823 1775.55 53.711 1765.46 32.2267 1745.27C10.7423 1725.74 0.00012207 1701.65 0.00012207 1673.01C0.00012207 1647.62 7.48709 1626.78 22.4611 1610.51C38.0861 1594.23 55.6643 1586.09 75.1955 1586.09C92.1225 1586.09 106.771 1591.95 119.141 1603.67C132.161 1615.39 138.672 1627.76 138.672 1640.78C138.672 1655.1 134.115 1667.47 125 1677.89C118.49 1685.7 115.235 1691.89 115.235 1696.45C115.235 1701.65 117.513 1706.21 122.07 1710.12C126.628 1714.67 132.487 1716.95 139.649 1716.95C152.669 1716.95 164.714 1713.7 175.781 1707.19C195.312 1696.12 214.518 1675.29 233.399 1644.69C252.279 1614.09 271.81 1556.47 291.992 1471.84C295.898 1457.51 323.893 1322.42 375.977 1066.56C380.534 1043.78 420.573 876.459 496.094 564.609H323.242L337.891 500.156C402.343 495.6 442.708 490.717 458.985 485.508C475.911 479.649 489.909 469.233 500.977 454.258C517.903 432.123 537.435 388.504 559.571 323.398C607.096 185.379 652.669 96.8371 696.289 57.7734C739.257 19.3632 787.109 0.157545 839.844 0.156189C880.208 0.157399 912.434 10.8997 936.524 32.3828C961.262 53.8684 973.632 79.5845 973.633 109.531C973.632 132.319 967.122 150.548 954.102 164.219C941.08 177.892 925.455 184.728 907.227 184.727C890.299 184.728 875.65 179.194 863.281 168.125C851.562 156.407 845.703 143.712 845.703 130.039C845.703 119.624 849.283 108.556 856.446 96.8359C863.606 84.4673 867.187 75.6783 867.188 70.4687C867.187 63.3085 864.257 57.1236 858.399 51.914C852.539 47.358 844.075 45.0794 833.008 45.0781C812.174 45.0793 793.294 52.8919 776.368 68.5156C753.58 90.0012 738.606 117.345 731.446 150.547C713.867 229.324 693.033 345.86 668.946 500.156Z"
        fill="white" />
</svg>